<?xml version="1.0" encoding="utf-8"?>
<!-- Generator: Adobe Illustrator 27.6.1, SVG Export Plug-In . SVG Version: 6.00 Build 0)  -->
<svg version="1.1" id="Camada_1" xmlns="http://www.w3.org/2000/svg" xmlns:xlink="http://www.w3.org/1999/xlink" x="0px" y="0px"
	 viewBox="0 0 522.7 818.5" style="enable-background:new 0 0 522.7 818.5;" xml:space="preserve">
<style type="text/css">
	.st0{fill:none;stroke:url(#SVGID_1_);stroke-width:2;stroke-miterlimit:10;}
</style>
<linearGradient id="SVGID_1_" gradientUnits="userSpaceOnUse" x1="8.0588" y1="409.2579" x2="514.6576" y2="409.2579">
	<stop  offset="0" style="stop-color:#10D9E8"/>
	<stop  offset="1" style="stop-color:#1458F5"/>
</linearGradient>
<path class="st0" d="M513.4,771.5c-6.9-28.1-15.4-62.6-18-72.6c-0.4-1.4-2-2-3.2-1.2c-7.7,4.9-15.5,9.2-23.7,12.4
	c-16.3,6.1-33,11.6-50.9,8.1c-11-2.2-20.8-7.5-28.5-16c-10.5-11.5-17.9-24.8-23.8-39.3c-3.6-9.2-6.5-18.4-9.5-27.7
	c-2.4-7.4-84-446.4-91-472.6c-3-11.2-7.1-22.3-11.2-33.2c-7-18.4-15.4-35.9-26.2-52.3c-10.7-16.2-23.2-30.8-39.2-42.2
	c-18.3-13.1-38.7-19-61.1-20.5c-24.3-1.6-47.2,4.4-70,10.7c-13.9,3.9-27,10.4-39.6,17.6c-2,1.2-2.4,2.3-1.8,4.6
	c5.9,23.6,11.7,47.2,17.5,70.8c0.6,2.2,0.5,3.9,3.8,1.9c9.7-6,20-11.2,30.9-14.6c17.3-5.3,34.9-9.8,53-2
	c11.2,4.9,19.7,12.8,26.7,22.5c8.7,12.1,14.4,25.6,19.5,39.5c1.9,5.2,8,34.1,16,74.8L9.1,724.7c-0.2,0.6,0.2,1.3,0.9,1.3h91.2
	c0.4,0,0.8-0.3,0.9-0.7l111.7-324.9c19.6,104.3,38.2,205.4,39.6,212.6c1.9,9.7,15.2,58.2,20.6,72.6c7.6,20.7,17.1,40.3,29.4,58.5
	c13.4,19.9,29.6,37,51.3,48.1c17.3,8.8,35.9,12.1,55.2,12.1c12.2,0,62.9-6.6,102.2-29.2C513.8,774.1,513.8,773.2,513.4,771.5
	L513.4,771.5z"/>
</svg>
